<?xml version="1.0" encoding="utf-8"?>
<!-- Generator: Adobe Illustrator 19.2.0, SVG Export Plug-In . SVG Version: 6.00 Build 0)  -->
<svg version="1.1" id="Layer_1" xmlns="http://www.w3.org/2000/svg" xmlns:xlink="http://www.w3.org/1999/xlink" x="0px" y="0px"
	 viewBox="0 0 190.7 155" style="enable-background:new 0 0 190.7 155;" xml:space="preserve">
<style type="text/css">
	.st0{opacity:0.6;fill:#84CBBA;}
	.st1{fill:#231F20;}
	.st2{fill:none;stroke:#84CBBA;stroke-width:1.5778;stroke-linecap:round;stroke-miterlimit:10;stroke-dasharray:0,4.1428;}
</style>
<path class="st0" d="M106.3,16.6L105.4,35c0,0.1,0.1,0.3,0.2,0.4l17.4,16.5c0.1,0.1,0.3,0.2,0.4,0.2l18.3-1.9c0.1,0,0.2-0.1,0.2-0.2
	l0.8-18.4c0-0.1-0.1-0.3-0.2-0.4l-17.4-16.5c-0.1-0.1-0.3-0.2-0.4-0.2l-18.3,1.9C106.4,16.4,106.3,16.5,106.3,16.6z"/>
<path class="st0" d="M180.4,19.5l-18-3.6c-0.1,0-0.3,0-0.5,0.1L143,30.8c-0.1,0.1-0.2,0.3-0.2,0.4l-0.9,18.4c0,0.1,0.1,0.2,0.2,0.3
	l18,3.6c0.1,0,0.3,0,0.5-0.1l18.9-14.8c0.1-0.1,0.2-0.3,0.2-0.4l0.9-18.4C180.6,19.6,180.5,19.5,180.4,19.5z"/>
<path class="st0" d="M166.3,92l6.1-17.4c0-0.1,0-0.3-0.1-0.5l-12-20.8c-0.1-0.2-0.2-0.3-0.4-0.3l-18.1-3.4c-0.1,0-0.2,0-0.3,0.2
	l-6.1,17.4c0,0.1,0,0.3,0.1,0.5l12,20.8c0.1,0.2,0.2,0.3,0.4,0.3l18.1,3.4C166.1,92.2,166.2,92.1,166.3,92z"/>
<g>
	<path class="st1" d="M12.7,87.8c1.8-3,4.1-5.3,7-6.9c2.8-1.6,5.9-2.4,9.3-2.4c5.4,0,9.3,1.5,12,4.5c2.6,3,3.9,7.5,4,13.6v32.8h-5.5
		V96.5c0-4.5-1-7.8-2.8-10c-1.9-2.2-4.8-3.3-8.9-3.3c-3.4,0-6.4,1.1-9.1,3.2c-2.6,2.1-4.6,5-5.8,8.7v34.2H7.2v-71h5.5V87.8z"/>
	<path class="st1" d="M54.1,64.9c0-1,0.3-1.9,1-2.6c0.7-0.7,1.6-1.1,2.8-1.1c1.2,0,2.1,0.4,2.8,1.1c0.7,0.7,1,1.6,1,2.6
		c0,1-0.3,1.9-1,2.6c-0.7,0.7-1.6,1.1-2.8,1.1c-1.2,0-2.1-0.4-2.8-1.1C54.4,66.8,54.1,65.9,54.1,64.9z M60.6,129.3h-5.5v-50h5.5
		V129.3z"/>
	<path class="st1" d="M111.1,104.8c0,7.8-1.7,14-5.2,18.6c-3.4,4.6-8.1,6.9-13.9,6.9c-7,0-12.2-2.6-15.8-7.8l-0.2,6.8h-5.2v-71h5.5
		v28.2c3.5-5.5,8.7-8.2,15.6-8.2c5.9,0,10.6,2.3,14,6.8c3.4,4.5,5.2,10.8,5.2,18.8V104.8z M105.6,103.9c0-6.6-1.3-11.7-3.8-15.3
		c-2.6-3.6-6.2-5.4-10.8-5.4c-3.5,0-6.5,0.9-9,2.6c-2.5,1.7-4.3,4.3-5.6,7.6V116c2.8,6.3,7.7,9.4,14.7,9.4c4.6,0,8.1-1.8,10.7-5.4
		C104.3,116.4,105.6,111,105.6,103.9z"/>
	<path class="st1" d="M118.3,64.9c0-1,0.3-1.9,1-2.6c0.7-0.7,1.6-1.1,2.8-1.1c1.2,0,2.1,0.4,2.8,1.1c0.7,0.7,1,1.6,1,2.6
		c0,1-0.3,1.9-1,2.6c-0.7,0.7-1.6,1.1-2.8,1.1c-1.2,0-2.1-0.4-2.8-1.1C118.6,66.8,118.3,65.9,118.3,64.9z M124.8,129.3h-5.5v-50h5.5
		V129.3z"/>
</g>
<g>
	<path class="st2" d="M189.9,57.2l-9.7-15.7c-0.1-0.1-0.2-0.2-0.4-0.2l-23.7-3.8c-0.2,0-0.4,0-0.5,0.1l-14.1,11.9
		c-0.1,0.1-0.1,0.2-0.1,0.3l9.7,15.7c0.1,0.1,0.2,0.2,0.4,0.2l23.7,3.8c0.2,0,0.4,0,0.5-0.1l14.1-11.9
		C189.9,57.4,190,57.3,189.9,57.2z"/>
</g>
<g>
	<path class="st2" d="M142.4,0.9l-14.1,11.8c-0.1,0.1-0.2,0.3-0.2,0.4l-0.4,24c0,0.2,0.1,0.3,0.2,0.4l13.7,12.2
		c0.1,0.1,0.2,0.1,0.3,0L156.1,38c0.1-0.1,0.2-0.3,0.2-0.4l0.4-24c0-0.2-0.1-0.3-0.2-0.4L142.7,0.9C142.6,0.8,142.5,0.8,142.4,0.9z"
		/>
</g>
</svg>
